<svg xmlns="http://www.w3.org/2000/svg" viewBox="0 0 284.87 249.57"><defs><style>.b13875dc-bcbf-4b89-9a6d-cfd838dc1f47{fill:#58e457;}.ee353a5a-c8ad-4e09-8ce0-e82a667165e5{fill:#333;}.ef995a4d-2b6d-437e-9f0a-83ba8b40d04a{fill:#ff6;}.fdd38e54-43b9-45c2-b8f6-2912a4b48a5a{fill:#f2f2f2;stroke:#333;stroke-miterlimit:10;stroke-width:5px;}</style></defs><title>ic_launcher</title><g id="b4a6c67b-c61f-41a8-9ca2-2a8c6a060b5d" data-name="Layer 2"><g id="ba0eeaf5-468d-4af4-bc32-f6e759726157" data-name="Layer 3"><path class="b13875dc-bcbf-4b89-9a6d-cfd838dc1f47" d="M1.6,130.88l36.14-22.56,4.51-1.84.51-2.9L39.29,72.83l14.33-2.64S61.1,73.38,65.39,74c3.88-17.15,14.13-49.6,14.13-49.6l13.8.94s13.22,18.31,21.8,25.39c12-15.42,52.21-47.15,52.21-47.15l13.33.15s-4.37,26.86-1.85,42.64c.3,1.91.72,4.06,2.36,5.09,1.29.81,2.93.65,4.44.46C194.37,50.86,226,36.2,226,36.2s20.78,5.95,20.75,8.06c-.18,10.6-27.4,33-29.88,43.31a7,7,0,0,0-.17,4c.87,2.33,3.81,3,6.28,3.29a162.72,162.72,0,0,1,44.45,12.64A266,266,0,0,1,241,143.35l20.31,22.36A176,176,0,0,0,231,169.47c-1.62,14.76,8.06,52.64,8.06,52.64l-16.79-3.63-29.07-18.95a2.24,2.24,0,0,0-3.48.27c-13.88,12.93-19.55,36.2-33.43,49.14-2.63,2.45-16.1-3-16.1-3L121,208.59c-1-2-2.38-4.31-4.64-4.72a7.64,7.64,0,0,0-3.85.68c-7.5,2.76-13.94,14-13.94,14S84.09,215,81.14,216.06a71.42,71.42,0,0,1,1-25.74C67.19,187.9,51.92,186.42,37,184c1.78-13.26,19.41-32.08,19.41-32.08Z"/><path class="ee353a5a-c8ad-4e09-8ce0-e82a667165e5" d="M2.35,130.11l18.06-11.28c5.73-3.58,12.34-8.39,17.92-11.19,3.42-1.72,5.65-1.37,5.82-5.76.11-2.55-.51-5.26-.79-7.79L40.72,70.73l-1,1.5c4.22-.78,8.6-1.28,12.75-2.35.38-.1,2.07-.18,1-.3s1.65.83,2.11,1A52.9,52.9,0,0,0,65,73.46a1.53,1.53,0,0,0,1.8-1.13c3.83-16.74,9-33.23,14.13-49.6l-1.4,1.16,10.22.7a14.35,14.35,0,0,0,2.27.15c1.68-.19.92.83,0-.55.52.8,1.14,1.55,1.71,2.32,6.1,8.17,12.49,16.69,20.3,23.32a1.51,1.51,0,0,0,2.12-.1c11-13.89,25.68-25.36,39.26-36.62,3.88-3.21,7.93-7.55,12.34-10,.85-.48-1.18.18.3,0a30.42,30.42,0,0,1,4.05,0l8.55.09-1.53-1.83c-.95,5.87-1.6,11.81-2.07,17.74-.7,8.6-2.18,19.67.74,28,2.37,6.77,10.16,4,15.24,2.32,7.59-2.54,15-5.73,22.3-8.92,2.69-1.17,5.36-2.36,8-3.57a22.74,22.74,0,0,1,2.36-1.07c1.39-.46-.73-.28.34-.13,2.36.32,4.85,1.45,7.11,2.17,3.33,1.08,7.4,1.95,10.4,3.84,1.4.89,1.32.53,1.34,2s-1.48,3.59-2.22,4.83a77.77,77.77,0,0,1-7.63,10.17c-5.51,6.56-11.65,12.74-16.45,19.85-4.18,6.19-6,13.81,3.31,15.58,15.52,3,30.15,6.2,44.72,12.6l-.63-2a273.89,273.89,0,0,1-26.23,35.49,1.54,1.54,0,0,0,.1,2.12l20.31,22.36.95-2.61A190.25,190.25,0,0,0,230.42,166a1.42,1.42,0,0,0-1,1.09c-1,10.44,1.27,21.29,3.23,31.49,1.41,7.36,3,14.69,4.86,22,.58-.65,1.17-1.29,1.76-1.93L228,216.19a35.54,35.54,0,0,1-5.25-1.14c-4.14-1.6-8.29-5.38-12-7.82l-12.12-7.9c-2.26-1.47-5.36-4.71-8.32-3.77-2.44.77-4.57,3.94-6.1,5.81a80.11,80.11,0,0,0-6.42,9.2c-4.15,6.81-7.61,14-11.69,20.88a78.46,78.46,0,0,1-6.73,9.84c-1.12,1.36-2.5,3.35-4.08,4.18s-3,.51-4.78.17a53.14,53.14,0,0,1-7.59-2.22c-3.2-1.15-3.69-4.4-5.23-7.41-5-9.79-10-19.62-15-29.37-3.57-6.85-8.47-7.83-14.83-3.24a40,40,0,0,0-10.65,12.42l1.67-.77c-5.41-1.32-12.68-3.87-18.23-2.44l2,1.36a74.72,74.72,0,0,1,.93-25.35,1.51,1.51,0,0,0-1.13-1.79c-15-2.39-30.11-3.92-45.11-6.31l1.13,1.8c1.92-11.82,11.09-22.86,19.06-31.41a1.51,1.51,0,0,0-.41-2.34l-54.81-21c-1.78-.69-3.2,2-1.4,2.65l54.81,21-.4-2.34c-8.29,8.89-17.78,20.45-19.78,32.76a1.52,1.52,0,0,0,1.13,1.79c15,2.39,30.12,3.93,45.11,6.31-.37-.6-.75-1.2-1.13-1.79a77.3,77.3,0,0,0-1,26.14,1.53,1.53,0,0,0,2,1.36c4.85-1.25,11.88,1.36,16.64,2.52a1.54,1.54,0,0,0,1.66-.77c2.62-4.5,6.21-9.24,10.67-12,1.94-1.21,4.9-2.52,7.09-1,1.79,1.25,2.94,4.86,3.91,6.73q3.41,6.67,6.83,13.35l6.83,13.36c1.23,2.4,2.33,6.16,4.53,7.75,2.89,2.11,8.62,3.09,12.07,3.5,5.28.64,7.6-2.72,10.7-6.69,4.47-5.72,7.95-12.13,11.4-18.5,3.66-6.78,7.26-13.72,12.1-19.76a23.4,23.4,0,0,1,3.26-3.69c3.07-2.47,4.49-.55,7.2,1.21l12.11,7.9c5.75,3.75,10.78,8,17.5,9.47l12.57,2.72a1.52,1.52,0,0,0,1.76-1.93c-2.4-9.45-4.46-19-6.07-28.65a121.42,121.42,0,0,1-2.09-19.38c0-2.06-.27-2.68,2-3.29a72.26,72.26,0,0,1,9-1.52c6-.84,12-1.35,18.09-1.6a1.52,1.52,0,0,0,1-2.6l-20.32-22.37.09,2.12a277.67,277.67,0,0,0,26.67-36.12,1.49,1.49,0,0,0-.63-2,167.08,167.08,0,0,0-36-11.34c-4.55-.87-15.91-.49-13.61-7.57,1.09-3.34,3.53-6.28,5.67-9,5.3-6.69,11.27-12.82,16.53-19.54,2.48-3.18,8.95-10.37,7.48-15-1.13-3.51-9-5-11.93-6-3.15-1.06-7.9-3.59-11.23-2.8-5,1.17-10.17,4.58-14.87,6.58a187.25,187.25,0,0,1-20.83,8,15.41,15.41,0,0,1-4.53,1c-4.83-.15-4.68-5-5-8.46a114.11,114.11,0,0,1,0-16.33,212.46,212.46,0,0,1,2.32-21.65A1.52,1.52,0,0,0,180.52.22l-9-.1c-1.64,0-3.63-.39-5.16.26s-2.82,2.25-4,3.19q-4.12,3.33-8.2,6.7c-13.92,11.52-28.94,23.22-40.24,37.44l2.12-.1c-8.33-7.07-13.77-16.41-21-24.38-1.4-1.55-2.45-1.44-4.58-1.58L79.39,20.9A1.51,1.51,0,0,0,78,22.06C72.82,38.43,67.7,54.92,63.86,71.66l1.8-1.13c-4.45-.81-9.12-4.18-13.56-3.61s-8.91,1.64-13.34,2.45a1.51,1.51,0,0,0-1,1.5Q39,82.1,40.26,93.35c.3,2.65,1,5.55.93,8.22a9.25,9.25,0,0,1-.42,2.25c1-.73,1-.9.25-.5l-1.56.63a28.08,28.08,0,0,0-2.77,1.18c-12.4,6.55-24.07,15-36,22.46A1.5,1.5,0,0,0,2.35,130.11Z"/><path class="ef995a4d-2b6d-437e-9f0a-83ba8b40d04a" d="M64.83,145a224.31,224.31,0,0,1-41.1-16.48c-1.25-.64-2.65-1.56-2.69-3s1.38-2.42,2.64-3.1a81.18,81.18,0,0,1,31.07-9.3c1.68-.15,3.63-.4,4.52-1.84a5.18,5.18,0,0,0,.5-2.9A148.63,148.63,0,0,0,53.4,68.45a168.55,168.55,0,0,0,27.94,6.67Q87.16,49.4,93,23.66a449.59,449.59,0,0,1,38.09,28.19,302.75,302.75,0,0,1,49.44-50,166,166,0,0,1,14.25,45.61c.31,1.91.73,4.06,2.36,5.09,1.29.81,2.94.65,4.45.46,8.76-1.08,23.79-6.36,32.54-7.45,2.61-.32,9.85-5,11.66-3.06,1.46,1.53-2.65,8.34-2.68,10.46-.18,10.6-7.79,25.37-10.27,35.68a7,7,0,0,0-.18,4c.87,2.33,3.81,3,6.28,3.29a162.62,162.62,0,0,1,44.45,12.64,265.14,265.14,0,0,1-26.45,35.81q10.17,11.18,20.32,22.36a176,176,0,0,0-30.34,3.76,370.11,370.11,0,0,1-8.72,49l-29.07-19a3.1,3.1,0,0,0-1.89-.69,3,3,0,0,0-1.6,1l-49.53,46.17L137,209.69c-1-2-2.39-4.31-4.64-4.72a7.62,7.62,0,0,0-3.85.68L97.09,217.16a71.18,71.18,0,0,1,1-25.74l-44.76-7.25a115.14,115.14,0,0,1,12.11-38Z"/><path class="ee353a5a-c8ad-4e09-8ce0-e82a667165e5" d="M65.16,143.51a227.42,227.42,0,0,1-33.29-12.63c-2.32-1.1-7.25-2.59-7.89-5.16-.47-1.94-.27-1.58,1.32-2.44,1.75-.94,3.56-1.77,5.38-2.55a80.27,80.27,0,0,1,17.15-5.14c3.35-.6,8.72-.06,11.55-2.28,3-2.36,1.85-7.54,1.65-10.77A155.56,155.56,0,0,0,54.83,68l-1.77,1.93A178.89,178.89,0,0,0,81,76.59a1.55,1.55,0,0,0,1.8-1.13L94.43,24l-2.16,1a464.59,464.59,0,0,1,37.78,28,1.52,1.52,0,0,0,2.12-.09A308.15,308.15,0,0,1,181.31,3.14l-2.24-.8a171.52,171.52,0,0,1,9.58,24.94q1.82,6.2,3.16,12.51c.77,3.66.72,8.18,2.42,11.57,2.25,4.48,7.25,3.33,11.34,2.52,7-1.37,13.82-3.54,20.75-5.22,2.83-.69,5.78-1,8.59-1.72,2.51-.65,4.85-2.49,7.39-2.9,3.94-.64.9,3.73.09,5.94-.89,2.43-.82,4.81-1.26,7.35-1.27,7.41-4.24,14.45-6.77,21.48-1.44,4-5.46,11.69-2.39,15.74,1.72,2.27,4.9,2.65,7.49,3,4.71.7,9.38,1.53,14,2.6A165.37,165.37,0,0,1,282.66,110l-.63-2a273.92,273.92,0,0,1-26.22,35.5,1.53,1.53,0,0,0,.09,2.11l20.32,22.37.94-2.61a190.24,190.24,0,0,0-30.73,3.83,1.47,1.47,0,0,0-1,1.1,384.26,384.26,0,0,1-8.73,49l2.16-1-24.22-15.79c-2.06-1.35-5.13-4.48-7.89-3.94s-5.42,4.32-7.34,6.12L155,246.05l2.36.2L145.5,223.11,140,212.43c-1.32-2.57-2.53-5.91-4.93-7.72-4.23-3.17-10.3.69-14.49,2.22l-24,8.8,2,1.36a74.66,74.66,0,0,1,.94-25.34,1.53,1.53,0,0,0-1.13-1.8l-44.77-7.24c.38.6.76,1.2,1.13,1.8a118.2,118.2,0,0,1,5.8-23.68,128,128,0,0,1,5.38-12.45c.95-1.94,1.12-2.3.16-4.22-.87-1.72-3.38-.08-2.52,1.63.61,1.22-2.6,6-3.25,7.51-1.31,3.06-2.5,6.18-3.55,9.33a118.74,118.74,0,0,0-4.94,21.21A1.51,1.51,0,0,0,53,185.63l44.76,7.25-1.13-1.8a77.1,77.1,0,0,0-1,26.15,1.52,1.52,0,0,0,2,1.36l19.37-7.11,9.23-3.38c1.24-.46,2.7-1.34,4-1.45,3.48-.28,4.13,1.45,5.51,3.85,7,12.08,12.78,25,19.13,37.38a1.52,1.52,0,0,0,2.37.2l37.88-35.31c2.88-2.68,5.63-5.74,8.74-8.14,2.88-2.24,3.89-3.13,7-1.09l5.65,3.68,21,13.69a1.52,1.52,0,0,0,2.16-1,380.93,380.93,0,0,0,7.3-37.6c.35-2.49-.06-7.45,1.21-9.5,1.6-2.56,6.42-2.21,9.17-2.63a185.88,185.88,0,0,1,20-1.87,1.52,1.52,0,0,0,.94-2.61l-20.31-22.36.09,2.12a277.67,277.67,0,0,0,26.67-36.12,1.51,1.51,0,0,0-.63-2,172.14,172.14,0,0,0-22.14-8c-7.67-2.18-15.66-2.82-23.3-4.83-3-.78-5-2.23-4.35-5.44.33-1.54.83-3.07,1.31-4.57,1.1-3.42,2.37-6.77,3.6-10.14,2.37-6.5,4.57-13,5.32-19.88.37-3.29,4.19-8.52,2.94-11.86s-5.91-1.47-8.22-.53c-5.21,2.14-10.51,2.93-16,4.32-6.52,1.66-13,3.71-19.63,4.87-3.09.54-5.7.37-7.17-2.82-.77-1.67-.73-4.09-1.07-5.9Q194.1,35.68,192.27,29a172.36,172.36,0,0,0-10.34-27.6c-.37-.77-1.4-1.47-2.24-.79A310.84,310.84,0,0,0,130,50.84l2.12-.1A475.2,475.2,0,0,0,93.67,22.33a1.51,1.51,0,0,0-2.16,1Q85.69,49.05,79.88,74.79l1.79-1.13A178.89,178.89,0,0,1,53.73,67c-1.14-.37-2.06.92-1.76,1.93A153.6,153.6,0,0,1,56.6,89.23c.54,3.5.94,7,1.23,10.55.23,2.88,1.33,7.6-.27,10.09-1.28,2-2.48,1.65-4.68,1.95-1.5.2-3,.39-4.49.64-2.52.43-5,1-7.48,1.6a82,82,0,0,0-16.44,6.28c-2.2,1.13-5.3,2.67-4.86,5.66.58,3.91,7.12,5.75,10,7.14a233.33,233.33,0,0,0,34.85,13.3C66.35,147,67,144.06,65.16,143.51Z"/><path class="fdd38e54-43b9-45c2-b8f6-2912a4b48a5a" d="M94.18,110.62c-1.19-2.8-5-11-12.57-15a18,18,0,0,0-15.22-.94,30.11,30.11,0,0,0-15.22,12.17c-10.16,15.81-10.76,47,2,62.73,7.92,9.78,18.26,9.49,23.15,9.36,8-.2,10.61-3.75,11.25-4.68,3.74-5.38,4.42-15.15,2-17.79-2-2.13-4.59,1.83-11.91,2.81-2.51.34-6.25.84-9.93-.94-5.45-2.63-12.88-11.27-11.91-22.47.88-10.07,9.11-14.82,12.57-16.85,3.12-1.82,7.38-4.32,11.25-1.87,5.26,3.33,5.42,13,7.94,13.11C89.05,130.33,91.26,127,94.18,110.62Z"/><path class="fdd38e54-43b9-45c2-b8f6-2912a4b48a5a" d="M181.27,121.41C177.2,105,173.83,91.42,166,90c-9.91-1.75-22.26,17.1-26,33.17-2.74,11.79-2.6,29.71,5.38,33.16a9.53,9.53,0,0,0,9.86-1.79c6.39-6.4-3.8-21.31,1.79-26,2.89-2.42,9.22-1.43,11.65,1.8,4.42,5.86-6.08,16.34-1.79,22.4,2.66,3.78,10.25,4.72,14.34,1.8C188.26,149.58,184.35,133.82,181.27,121.41Zm-15.93-4.89a3,3,0,0,1-1.35.6,4.86,4.86,0,0,1-3.16-.09,4.21,4.21,0,0,1-2.54-2.9,4.09,4.09,0,0,1,3.5-4.44,3.81,3.81,0,0,1,2.6.94,5.59,5.59,0,0,1,1.85,2.84A3.09,3.09,0,0,1,165.34,116.52Z"/><path class="fdd38e54-43b9-45c2-b8f6-2912a4b48a5a" d="M83.47,110.09c.45,3.76.76,9.61,1.61,13.7,1.59,7.56,2.9,15.18,4.43,22.75,2.63,12.93,3.36,17.14,6.45,18.13,2.19.7,5.53-.24,8.25-1s4.06-1.14,4.64-1.81c3.85-4.48-7.32-17.54-3.43-21.95.78-.89,2-1.23,4-1.81,1.86-.54,5-1.44,6.85-.21s1.31,4.19,1.41,10.88c.11,8.08.21,12.17,2.41,14.5,2.74,2.89,8.19,3.75,11.28,1.61,1-.7,2.57-2.27,3-13.29.24-5.83,0-9.47-.6-20.54-.14-2.72-.35-6.78-.81-12.29-.8-9.59-1.5-13.3-4.43-15.71a12.35,12.35,0,0,0-4.63-2.21c-1.07-.31-6.18-1.76-8.06.4-.74.86-.65,1.91,0,6,1.39,8.78,2,10.73.81,12.49-.92,1.3-2.33,1.7-4.83,2.42s-6.32,1.79-8.66,0c-1.62-1.25-1.2-2.92-2.62-12.89-.62-4.32-1-6-2.42-7.45a9.09,9.09,0,0,0-6-2.42c-.39,0-5.71-.24-8,3.22C82.8,104.53,83.05,106.57,83.47,110.09Z"/><path class="fdd38e54-43b9-45c2-b8f6-2912a4b48a5a" d="M208.76,91.3c11.93,1.09,23.93-1.38,35.9-1.34,1.48,0,5,0,6,2.14.53,1.2,0,2.69-1,5.62-1.18,3.45-1.77,5.17-2.62,5.88-3.78,3.15-11.1-4.79-14.27-2.14-1.25,1.05-1.21,3.22-.71,8.83,1.2,13.53,1.81,20.29,3.33,26.48,2,7.91,3.58,11.36,1.9,13.37-.39.47-1.06,1-9,1.34-5.42.24-5.95,0-6.42-.27-2.24-1.47-2.54-5-2.62-15.78-.12-15.27-.17-22.91,0-24.61.47-4.62,1.1-8-.24-8.82-2.31-1.48-6.86,6.83-11.41,5.35-3-1-4.36-5.62-5-7.76-.58-2-1.44-4.84-.24-6.69C203.73,90.76,207.16,91.15,208.76,91.3Z"/><path class="fdd38e54-43b9-45c2-b8f6-2912a4b48a5a" d="M203.86,109.26c-2.3-1.46-8.08,1.38-9.09,5.23-1,3.67,2.89,6.46,1.62,8.46-1.57,2.46-7.91-1-10.55,1.94-2,2.2-1.31,7.42,1.33,9.27,3.35,2.35,8.23-1.85,10.33.27,1.22,1.23,0,3.11-1.06,11.12a43.27,43.27,0,0,0-.53,9c.21,3.56.44,6.73,2.65,8.21,1.13.76,2.34.77,4.5.8s4.45,0,6.1-1.33c1-.81,1.73-2.11,2.12-5.83a37.68,37.68,0,0,0-.53-10.86c-1.52-8.62-3.1-11.74-1.59-13s4.31,1.29,6.35-.26c2.25-1.71,1.16-6.51,1.06-6.89-.35-1.47-.74-3.12-2.11-4-2.77-1.71-6,1.6-8.22.27C203,119.8,206.86,111.17,203.86,109.26Z"/><path class="fdd38e54-43b9-45c2-b8f6-2912a4b48a5a" d="M248.64,103.89a7,7,0,0,0-5.19,4c-1.88,3.91.84,8.27,1.22,8.87,3.55,5.51,9.68,4.46,11.31,9.17a7.16,7.16,0,0,1-.61,5.5c-1.62,3-5.35,4.35-8.25,4.29-3.88-.09-5.05-2.59-7.34-1.84-2.51.82-4.22,4.84-3.67,7.95,1.07,6,11,10.8,19,9.17s12.07-9.55,15.28-15.9c6.09-12,9.9-31.22,1.84-37.3-3.44-2.59-9.13-2.83-11-.61-2.45,2.9,1.81,9.74-.19,11-.42.27-.91.15-4.09-1.23C251,104.39,250.21,103.73,248.64,103.89Z"/></g></g></svg>